<?xml version="1.0" standalone="no"?><!DOCTYPE svg PUBLIC "-//W3C//DTD SVG 1.1//EN" "http://www.w3.org/Graphics/SVG/1.1/DTD/svg11.dtd"><svg xmlns:xlink="http://www.w3.org/1999/xlink" version="1.1" style="font-family:'lucida grande', 'lucida sans unicode', arial, helvetica, sans-serif;font-size:12px;" xmlns="http://www.w3.org/2000/svg" width="600" height="400"><desc>Created with Highcharts 4.0.4</desc><defs><clipPath id="highcharts-7"><rect x="0" y="0" width="520" height="247"></rect></clipPath></defs><rect x="0" y="0" width="600" height="400" strokeWidth="0" fill="#FFFFFF" class=" highcharts-background"></rect><g class="highcharts-grid" ></g><g class="highcharts-grid" ><path fill="none" d="M 70 60.5 L 590 60.5" stroke="#C0C0C0" stroke-width="1"  opacity="1"></path><path fill="none" d="M 70 102.5 L 590 102.5" stroke="#C0C0C0" stroke-width="1"  opacity="1"></path><path fill="none" d="M 70 143.5 L 590 143.5" stroke="#C0C0C0" stroke-width="1"  opacity="1"></path><path fill="none" d="M 70 185.5 L 590 185.5" stroke="#C0C0C0" stroke-width="1"  opacity="1"></path><path fill="none" d="M 70 226.5 L 590 226.5" stroke="#C0C0C0" stroke-width="1"  opacity="1"></path><path fill="none" d="M 70 267.5 L 590 267.5" stroke="#C0C0C0" stroke-width="1"  opacity="1"></path><path fill="none" d="M 70 308.5 L 590 308.5" stroke="#C0C0C0" stroke-width="1"  opacity="1"></path></g><g class="highcharts-axis" ><path fill="none" d="M 176.5 308 L 176.5 318" stroke="#C0D0E0" stroke-width="1" opacity="1"></path><path fill="none" d="M 278.5 308 L 278.5 318" stroke="#C0D0E0" stroke-width="1" opacity="1"></path><path fill="none" d="M 380.5 308 L 380.5 318" stroke="#C0D0E0" stroke-width="1" opacity="1"></path><path fill="none" d="M 482.5 308 L 482.5 318" stroke="#C0D0E0" stroke-width="1" opacity="1"></path><path fill="none" d="M 584.5 308 L 584.5 318" stroke="#C0D0E0" stroke-width="1" opacity="1"></path><path fill="none" d="M 74.5 308 L 74.5 318" stroke="#C0D0E0" stroke-width="1" opacity="1"></path><text x="330"  text-anchor="middle" transform="translate(0,0)" class=" highcharts-xaxis-title" style="color:#707070;fill:#707070;" visibility="visible" y="345.96875">Change/Request</text><path fill="none" d="M 70 308.5 L 590 308.5" stroke="#C0D0E0" stroke-width="1"  visibility="visible"></path></g><g class="highcharts-axis" ><text x="24.125"  text-anchor="middle" transform="translate(0,0) rotate(270 24.125 184.5)" class=" highcharts-yaxis-title" style="color:#707070;fill:#707070;" visibility="visible" y="184.5"><tspan>Request Time(No Cache)/Request Time(Cache)</tspan></text></g><g class="highcharts-series-group" ><g class="highcharts-series" visibility="visible"  transform="translate(70,61) scale(1 1)" clip-path="url(#highcharts-7)"><path fill="none" d="M 5.098039215686275 172.406 C 5.098039215686275 172.406 11.215686274509805 147.8542 15.294117647058826 147.8542 C 27.52941176470589 147.8542 33.64705882352942 154.68539666666663 45.88235294117648 157.43779999999998 C 131.5294117647059 176.7046233333333 174.35294117647058 202.90226666666666 260 202.90226666666666 C 361.96078431372547 202.90226666666666 514.9019607843137 193.2528 514.9019607843137 193.2528" stroke="#7cb5ec" stroke-width="2"  stroke-linejoin="round" stroke-linecap="round"></path></g><g class="highcharts-markers" visibility="visible"  transform="translate(70,61) scale(1 1)" clip-path="none"><path fill="#7cb5ec" d="M 514 189.2528 C 519.328 189.2528 519.328 197.2528 514 197.2528 C 508.672 197.2528 508.672 189.2528 514 189.2528 Z"></path><path fill="#7cb5ec" d="M 260 198.90226666666666 C 265.328 198.90226666666666 265.328 206.90226666666666 260 206.90226666666666 C 254.672 206.90226666666666 254.672 198.90226666666666 260 198.90226666666666 Z"></path><path fill="#7cb5ec" d="M 45 153.43779999999998 C 50.328 153.43779999999998 50.328 161.43779999999998 45 161.43779999999998 C 39.672 161.43779999999998 39.672 153.43779999999998 45 153.43779999999998 Z"></path><path fill="#7cb5ec" d="M 15 143.8542 C 20.328 143.8542 20.328 151.8542 15 151.8542 C 9.672 151.8542 9.672 143.8542 15 143.8542 Z"></path><path fill="#7cb5ec" d="M 5 168.406 C 10.328 168.406 10.328 176.406 5 176.406 C -0.32800000000000007 176.406 -0.32800000000000007 168.406 5 168.406 Z"></path></g><g class="highcharts-series" visibility="visible"  transform="translate(70,61) scale(1 1)" clip-path="url(#highcharts-7)"><path fill="none" d="M 5.098039215686275 131.04173333333333 C 5.098039215686275 131.04173333333333 11.215686274509805 140.27953333333332 15.294117647058826 140.27953333333332 C 27.52941176470589 140.27953333333332 33.64705882352942 120.56893333333333 45.88235294117648 120.56893333333333 C 131.5294117647059 120.56893333333333 174.35294117647058 187.60473333333334 260 187.60473333333334 C 361.96078431372547 187.60473333333334 514.9019607843137 180.04653333333334 514.9019607843137 180.04653333333334" stroke="#434348" stroke-width="2"  stroke-linejoin="round" stroke-linecap="round"></path></g><g class="highcharts-markers" visibility="visible"  transform="translate(70,61) scale(1 1)" clip-path="none"><path fill="#434348" d="M 514 176.04653333333334 L 518 180.04653333333334 514 184.04653333333334 510 180.04653333333334 Z"></path><path fill="#434348" d="M 260 183.60473333333334 L 264 187.60473333333334 260 191.60473333333334 256 187.60473333333334 Z"></path><path fill="#434348" d="M 45 116.56893333333333 L 49 120.56893333333333 45 124.56893333333333 41 120.56893333333333 Z"></path><path fill="#434348" d="M 15 136.27953333333332 L 19 140.27953333333332 15 144.27953333333332 11 140.27953333333332 Z"></path><path fill="#434348" d="M 5 127.04173333333333 L 9 131.04173333333333 5 135.04173333333333 1 131.04173333333333 Z"></path></g><g class="highcharts-series" visibility="visible"  transform="translate(70,61) scale(1 1)" clip-path="url(#highcharts-7)"><path fill="none" d="M 5.098039215686275 189.95946666666666 C 5.098039215686275 189.95946666666666 11.215686274509805 178.58100000000002 15.294117647058826 177.77413333333334 C 27.52941176470589 176.96726666666666 33.64705882352942 176.96726666666666 45.88235294117648 176.96726666666666 C 131.5294117647059 176.96726666666666 174.35294117647058 212.55173333333335 260 212.55173333333335 C 361.96078431372547 212.55173333333335 514.9019607843137 204.6148 514.9019607843137 204.6148" stroke="#90ed7d" stroke-width="2"  stroke-linejoin="round" stroke-linecap="round"></path></g><g class="highcharts-markers" visibility="visible"  transform="translate(70,61) scale(1 1)" clip-path="none"><path fill="#90ed7d" d="M 510 200.6148 L 518 200.6148 518 208.6148 510 208.6148 Z"></path><path fill="#90ed7d" d="M 256 208.55173333333335 L 264 208.55173333333335 264 216.55173333333335 256 216.55173333333335 Z"></path><path fill="#90ed7d" d="M 41 172.96726666666666 L 49 172.96726666666666 49 180.96726666666666 41 180.96726666666666 Z"></path><path fill="#90ed7d" d="M 11 173.77413333333334 L 19 173.77413333333334 19 181.77413333333334 11 181.77413333333334 Z"></path><path fill="#90ed7d" d="M 1 185.95946666666666 L 9 185.95946666666666 9 193.95946666666666 1 193.95946666666666 Z"></path></g><g class="highcharts-series" visibility="visible"  transform="translate(70,61) scale(1 1)" clip-path="url(#highcharts-7)"><path fill="none" d="M 5.098039215686275 131.81566666666666 C 5.098039215686275 131.81566666666666 11.215686274509805 24.815266666666645 15.294117647058826 24.815266666666645 C 27.52941176470589 24.815266666666645 33.64705882352942 96.64286666666669 45.88235294117648 145.20306666666667 C 131.5294117647059 193.76326666666665 174.35294117647058 193.76326666666665 260 193.76326666666665 C 361.96078431372547 193.76326666666665 514.9019607843137 171.79673333333332 514.9019607843137 171.79673333333332" stroke="#f7a35c" stroke-width="2"  stroke-linejoin="round" stroke-linecap="round"></path></g><g class="highcharts-markers" visibility="visible"  transform="translate(70,61) scale(1 1)" clip-path="none"><path fill="#f7a35c" d="M 514 167.79673333333332 L 518 175.79673333333332 510 175.79673333333332 Z"></path><path fill="#f7a35c" d="M 260 189.76326666666665 L 264 197.76326666666665 256 197.76326666666665 Z"></path><path fill="#f7a35c" d="M 45 141.20306666666667 L 49 149.20306666666667 41 149.20306666666667 Z"></path><path fill="#f7a35c" d="M 15 20.815266666666645 L 19 28.815266666666645 11 28.815266666666645 Z"></path><path fill="#f7a35c" d="M 5 127.81566666666666 L 9 135.81566666666666 1 135.81566666666666 Z"></path></g></g><text x="300" text-anchor="middle" class="highcharts-title"  style="color:#333333;font-size:18px;fill:#333333;width:536px;" y="25"><tspan>AMS Cache benchmark</tspan></text><text x="300" text-anchor="middle" class="highcharts-subtitle"  style="color:#555555;fill:#555555;width:536px;" y="46"><tspan>Source: smartlion</tspan></text><g class="highcharts-legend"  transform="translate(143,368)"><g ><g><g class="highcharts-legend-item"  transform="translate(8,3)"><path fill="none" d="M 0 11 L 16 11" stroke="#7cb5ec" stroke-width="2"></path><path fill="#7cb5ec" d="M 8 7 C 13.328 7 13.328 15 8 15 C 2.6719999999999997 15 2.6719999999999997 7 8 7 Z"></path><text x="21" style="color:#333333;font-size:12px;font-weight:bold;cursor:pointer;fill:#333333;" text-anchor="start"  y="15">Total</text></g><g class="highcharts-legend-item"  transform="translate(80.765625,3)"><path fill="none" d="M 0 11 L 16 11" stroke="#434348" stroke-width="2"></path><path fill="#434348" d="M 8 7 L 12 11 8 15 4 11 Z"></path><text x="21" y="15" style="color:#333333;font-size:12px;font-weight:bold;cursor:pointer;fill:#333333;" text-anchor="start" >Question</text></g><g class="highcharts-legend-item"  transform="translate(177.671875,3)"><path fill="none" d="M 0 11 L 16 11" stroke="#90ed7d" stroke-width="2"></path><path fill="#90ed7d" d="M 4 7 L 12 7 12 15 4 15 Z"></path><text x="21" y="15" style="color:#333333;font-size:12px;font-weight:bold;cursor:pointer;fill:#333333;" text-anchor="start" >Answer</text></g><g class="highcharts-legend-item"  transform="translate(265.015625,3)"><path fill="none" d="M 0 11 L 16 11" stroke="#f7a35c" stroke-width="2"></path><path fill="#f7a35c" d="M 8 7 L 12 15 4 15 Z"></path><text x="21" y="15" style="color:#333333;font-size:12px;font-weight:bold;cursor:pointer;fill:#333333;" text-anchor="start" >User</text></g></g></g></g><g class="highcharts-axis-labels highcharts-xaxis-labels" ><text x="75.09803921568627" text-anchor="middle" style="color:#606060;cursor:default;font-size:11px;fill:#606060;" y="328" opacity="1">0</text><text x="177.05882352941177" text-anchor="middle" style="color:#606060;cursor:default;font-size:11px;fill:#606060;" y="328" opacity="1">1</text><text x="279.01960784313724" text-anchor="middle" style="color:#606060;cursor:default;font-size:11px;fill:#606060;" y="328" opacity="1">2</text><text x="380.98039215686276" text-anchor="middle" style="color:#606060;cursor:default;font-size:11px;fill:#606060;" y="328" opacity="1">3</text><text x="482.94117647058823" text-anchor="middle" style="color:#606060;cursor:default;font-size:11px;fill:#606060;" y="328" opacity="1">4</text><text x="584.9019607843137" text-anchor="middle" style="color:#606060;cursor:default;font-size:11px;fill:#606060;" y="328" opacity="1">5</text></g><g class="highcharts-axis-labels highcharts-yaxis-labels" ><text x="55" text-anchor="end" style="width:178px;color:#606060;cursor:default;font-size:11px;fill:#606060;" y="313.515625" opacity="1">25</text><text x="55" text-anchor="end" style="width:178px;color:#606060;cursor:default;font-size:11px;fill:#606060;" y="272.3489583333333" opacity="1">50</text><text x="55" text-anchor="end" style="width:178px;color:#606060;cursor:default;font-size:11px;fill:#606060;" y="231.18229166666663" opacity="1">75</text><text x="55" text-anchor="end" style="width:178px;color:#606060;cursor:default;font-size:11px;fill:#606060;" y="190.015625" opacity="1">100</text><text x="55" text-anchor="end" style="width:178px;color:#606060;cursor:default;font-size:11px;fill:#606060;" y="148.84895833333331" opacity="1">125</text><text x="55" text-anchor="end" style="width:178px;color:#606060;cursor:default;font-size:11px;fill:#606060;" y="107.68229166666666" opacity="1">150</text><text x="55" text-anchor="end" style="width:178px;color:#606060;cursor:default;font-size:11px;fill:#606060;" y="66.515625" opacity="1">175</text></g><g class="highcharts-tooltip"  style="cursor:default;padding:0;white-space:nowrap;" transform="translate(0,-9999)"><path fill="none" d="M 3 0 L 13 0 C 16 0 16 0 16 3 L 16 13 C 16 16 16 16 13 16 L 3 16 C 0 16 0 16 0 13 L 0 3 C 0 0 0 0 3 0"  stroke="black" stroke-opacity="0.049999999999999996" stroke-width="5" transform="translate(1, 1)"></path><path fill="none" d="M 3 0 L 13 0 C 16 0 16 0 16 3 L 16 13 C 16 16 16 16 13 16 L 3 16 C 0 16 0 16 0 13 L 0 3 C 0 0 0 0 3 0"  stroke="black" stroke-opacity="0.09999999999999999" stroke-width="3" transform="translate(1, 1)"></path><path fill="none" d="M 3 0 L 13 0 C 16 0 16 0 16 3 L 16 13 C 16 16 16 16 13 16 L 3 16 C 0 16 0 16 0 13 L 0 3 C 0 0 0 0 3 0"  stroke="black" stroke-opacity="0.15" stroke-width="1" transform="translate(1, 1)"></path><path fill="rgb(249, 249, 249)" fill-opacity=" .85" d="M 3 0 L 13 0 C 16 0 16 0 16 3 L 16 13 C 16 16 16 16 13 16 L 3 16 C 0 16 0 16 0 13 L 0 3 C 0 0 0 0 3 0"></path><text x="8"  style="font-size:12px;color:#333333;fill:#333333;" y="21"></text></g><text x="590" text-anchor="end"  style="cursor:pointer;color:#909090;font-size:9px;fill:#909090;" y="395">Highcharts.com</text></svg>